# xmcd
#
# Track frame offsets: 
#        151
#        12400
#        25209
#        42911
#        70882
#        84512
#        99232
#        112071
#        130744
#        145287
#        164034
#        178510
#        195089
#        212037
#        230939
#
# Disc length: 3246 seconds
#
# Revision: 0
# Processed by: cddbd v1.5.1PL0 Copyright (c) Steve Scherf et al.
# Submitted via: ExactAudioCopy v0.95a5
#
DISCID=d00cac0f
DTITLE=Takumi Fukushima, Dominique Lentin - Takumi Fukushima, Dominiqu
DTITLE=e Lentin
DYEAR=1999
DGENRE=Other
TTITLE0=*H.S.
TTITLE1=*Primo
TTITLE2=*Diamine
TTITLE3=*Feu Follet
TTITLE4=*Soft Ballet
TTITLE5=*Transe De Guingois
TTITLE6=*Terzo
TTITLE7=*Has Been
TTITLE8=*Ceremony
TTITLE9=*Lakc
TTITLE10=*Secondo
TTITLE11=*Parapapa
TTITLE12=*Alfred
TTITLE13=*Tagalo
TTITLE14=*Opera Udu
EXTD=
EXTT0=
EXTT1=
EXTT2=
EXTT3=
EXTT4=
EXTT5=
EXTT6=
EXTT7=
EXTT8=
EXTT9=
EXTT10=
EXTT11=
EXTT12=
EXTT13=
EXTT14=
PLAYORDER=
